{"title":"First Anal Quest - Abby's Xmas Anal","uid":10809052,"size":391164355,"categoryP":"porn","categoryS":"movie_clips","magnet":"?xt=urn:btih:bfff3fe5969d765ea974a365665b0042ec47363b&amp;dn=First+Anal+Quest+-+Abby%27s+Xmas+Anal&amp;tr=udp%3A%2F%2Ftracker.openbittorrent.com%3A80&amp;tr=udp%3A%2F%2Fopen.demonii.com%3A1337&amp;tr=udp%3A%2F%2Ftracker.coppersurfer.tk%3A6969&amp;tr=udp%3A%2F%2Fexodus.desync.com%3A6969","seeders":0,"leechers":1,"uploader":"ThousandPeers","files":-1,"time":1408405868,"description":"Format                                   : VC-1\nFormat profile                           : MP@ML\nCodec ID                                 : WMV3\nCodec ID/Info                            : Windows Media Video 9\nCodec ID/Hint                            : WMV3\nDescription of the codec                 : Windows Media Video 9\nDuration                                 : 42mn 17s\nBit rate mode                            : Constant\nBit rate                                 : 1 101 Kbps\nWidth                                    : 580 pixels\nHeight                                   : 328 pixels\nDisplay aspect ratio                     : 16:9\nFrame rate                               : 29.970 fps\nBit depth                                : 8 bits\nScan type                                : Progressive\nCompression mode                         : Lossy\nBits/(Pixel*Frame)                       : 0.193\nStream size                              : 333 MiB (89%)\nLanguage                                 : Russian\n\nAudio\nID                                       : 1\nFormat                                   : WMA\nFormat version                           : Version 2\nCodec ID                                 : 161\nCodec ID/Info                            : Windows Media Audio\nDescription of the codec                 : Windows Media Audio 9.2 - 128 kbps, 44 kHz, stereo (A/V) 1-pass CBR\nDuration                                 : 42mn 17s\nBit rate mode                            : Constant\nBit rate                                 : 128 Kbps\nChannel(s)                               : 2 channels\nSampling rate                            : 44.1 KHz\nBit depth                                : 16 bits\nStream size                              : 38.7 MiB (10%)\nLanguage                                 : Russian\n","torrent":{"xt":"urn:btih:bfff3fe5969d765ea974a365665b0042ec47363b","amp;dn":"First+Anal+Quest+-+Abby%27s+Xmas+Anal","amp;tr":["udp%3A%2F%2Ftracker.openbittorrent.com%3A80","udp%3A%2F%2Fopen.demonii.com%3A1337","udp%3A%2F%2Ftracker.coppersurfer.tk%3A6969","udp%3A%2F%2Fexodus.desync.com%3A6969"],"infoHash":"bfff3fe5969d765ea974a365665b0042ec47363b","infoHashBuffer":{"type":"Buffer","data":[191,255,63,229,150,157,118,94,169,116,163,101,102,91,0,66,236,71,54,59]},"announce":[],"urlList":[]}}